<svg width="25" height="25" viewBox="0 0 48 48" fill="none" xmlns="http://www.w3.org/2000/svg">
<g clip-path="url(#clip0_141_71)">
<path d="M5.33333 6.66699C3.91885 6.66699 2.56229 7.2289 1.5621 8.22909C0.561903 9.22928 0 10.5858 0 12.0003L0 36.0003C0 37.4148 0.561903 38.7714 1.5621 39.7716C2.56229 40.7718 3.91885 41.3337 5.33333 41.3337H24V6.66699H5.33333Z" fill="#006233"/>
<path d="M42.6667 6.66699H24V41.3337H42.6667C44.0812 41.3337 45.4377 40.7718 46.4379 39.7716C47.4381 38.7714 48 37.4148 48 36.0003V12.0003C48 10.5858 47.4381 9.22928 46.4379 8.22909C45.4377 7.2289 44.0812 6.66699 42.6667 6.66699Z" fill="#EEEEEE"/>
<path d="M26.6667 32.0003C22.2467 32.0003 18.6667 28.4203 18.6667 24.0003C18.6667 19.5816 22.2467 16.0003 26.6667 16.0003C28.4134 16.0003 30.0267 16.567 31.3427 17.5176C30.4252 16.4739 29.2957 15.6379 28.0295 15.0651C26.7634 14.4924 25.3897 14.1962 24 14.1963C21.3999 14.1963 18.9062 15.2292 17.0676 17.0678C15.229 18.9064 14.196 21.4001 14.196 24.0003C14.1959 25.2879 14.4493 26.5629 14.9419 27.7525C15.4346 28.9422 16.1567 30.0231 17.0671 30.9336C17.9775 31.8442 19.0583 32.5664 20.2479 33.0592C21.4375 33.552 22.7125 33.8056 24 33.8056C26.9267 33.8056 29.5467 32.5163 31.3427 30.483C29.9835 31.47 28.3465 32.0012 26.6667 32.0003Z" fill="#D20F34"/>
<path d="M33.7361 24.3068L30.4827 25.0561L30.1894 28.3801L28.4721 25.5188L25.2188 26.2668L27.4108 23.7495L25.6948 20.8868L28.7654 22.1935L30.9574 19.6748L30.6641 23.0001L33.7361 24.3068Z" fill="#D20F34"/>
</g>
<defs>
<clipPath id="clip0_141_71">
<rect width="48" height="48" fill="white"/>
</clipPath>
</defs>
</svg>
