<svg width="52" height="52" viewBox="0 0 52 52" fill="none" xmlns="http://www.w3.org/2000/svg">
<g clip-path="url(#clip0_178_978)">
<path d="M40.2588 4.6367L26.6846 0.110533C26.2401 -0.0374955 25.7597 -0.0374955 25.3153 0.110533L11.7411 4.6367C9.58288 5.35361 7.70549 6.73242 6.37565 8.57724C5.04581 10.4221 4.33117 12.639 4.33326 14.9132V26C4.33326 42.3865 24.2666 51.4367 25.1203 51.8137C25.3972 51.9367 25.6969 52.0003 25.9999 52.0003C26.303 52.0003 26.6026 51.9367 26.8796 51.8137C27.7333 51.4367 47.6666 42.3865 47.6666 26V14.9132C47.6687 12.639 46.954 10.4221 45.6242 8.57724C44.2944 6.73242 42.417 5.35361 40.2588 4.6367ZM43.3333 26C43.3333 37.8192 29.6421 45.5715 25.9999 47.4262C22.3534 45.578 8.66659 37.8495 8.66659 26V14.9132C8.66672 13.5488 9.09618 12.219 9.89415 11.1123C10.6921 10.0056 11.8181 9.17802 13.1126 8.74687L25.9999 4.45037L38.8873 8.74687C40.1817 9.17802 41.3077 10.0056 42.1057 11.1123C42.9037 12.219 43.3331 13.5488 43.3333 14.9132V26Z" fill="#FFD700"/>
<path d="M33.15 17.9833L24.076 27.0833L19.214 22.0133C19.0188 21.7999 18.783 21.6278 18.5203 21.507C18.2576 21.3862 17.9735 21.3192 17.6845 21.31C17.3955 21.3007 17.1076 21.3494 16.8378 21.4531C16.5679 21.5569 16.3215 21.7135 16.1132 21.914C15.9048 22.1144 15.7387 22.3545 15.6245 22.6201C15.5104 22.8857 15.4505 23.1715 15.4485 23.4606C15.4465 23.7497 15.5024 24.0363 15.6129 24.3034C15.7234 24.5706 15.8862 24.813 16.0918 25.0163L21.0881 30.2163C21.4607 30.6187 21.9111 30.9414 22.412 31.1649C22.9129 31.3883 23.4539 31.5079 24.0023 31.5163H24.0738C24.6112 31.518 25.1437 31.413 25.6402 31.2073C26.1368 31.0017 26.5875 30.6994 26.9663 30.3181L36.2223 21.0621C36.4245 20.8604 36.5849 20.6208 36.6945 20.357C36.804 20.0933 36.8606 19.8106 36.8609 19.525C36.8612 19.2394 36.8052 18.9565 36.6962 18.6925C36.5872 18.4286 36.4273 18.1887 36.2255 17.9865C36.0238 17.7843 35.7842 17.6239 35.5205 17.5143C35.2568 17.4048 34.974 17.3482 34.6884 17.3479C34.4028 17.3476 34.12 17.4036 33.856 17.5126C33.592 17.6216 33.3521 17.7815 33.15 17.9833Z" fill="#FFD700"/>
</g>
<defs>
<clipPath id="clip0_178_978">
<rect width="52" height="52" fill="white"/>
</clipPath>
</defs>
</svg>
