<svg width="20" height="20" viewBox="0 0 36 27" fill="none" xmlns="http://www.w3.org/2000/svg">
    <path
        d="M0.311901 0.678125C0.567282 0.326113 0.951977 0.0898993 1.38144 0.0213983C1.81091 -0.0471027 2.25 0.0577139 2.60221 0.312812L34.321 23.2816C34.5021 23.4052 34.6567 23.564 34.7754 23.7484C34.8942 23.9328 34.9748 24.1392 35.0124 24.3553C35.05 24.5714 35.0439 24.7929 34.9944 25.0066C34.945 25.2203 34.8532 25.4219 34.7244 25.5995C34.5957 25.7771 34.4326 25.9271 34.2449 26.0406C34.0572 26.1541 33.8486 26.2288 33.6315 26.2603C33.4144 26.2918 33.1932 26.2794 32.981 26.2239C32.7688 26.1684 32.5699 26.0709 32.396 25.9372L27.4785 22.3759C24.8185 24.4781 21.4191 26.25 17.4991 26.25C13.1657 26.25 9.47096 24.08 6.70815 21.7044C3.93003 19.32 1.92409 16.5747 0.939713 15.0937C0.551462 14.5118 0.344267 13.8279 0.344267 13.1283C0.344267 12.4287 0.551462 11.7448 0.939713 11.1628C1.7119 9.99688 3.11628 8.05656 5.02596 6.12062L0.677213 2.96844C0.325201 2.71306 0.0889878 2.32836 0.0204868 1.8989C-0.0480142 1.46943 0.0568026 1.03034 0.311901 0.678125ZM3.6719 12.9763C3.64112 13.0198 3.62434 13.0717 3.62378 13.125C3.62378 13.1709 3.6369 13.2234 3.6719 13.2737C4.57315 14.6322 6.38878 17.1019 8.84753 19.2172C11.3194 21.3456 14.2769 22.9688 17.4991 22.9688C20.1132 22.9688 22.5522 21.9013 24.696 20.3634L19.8244 16.8328C19.0858 17.2967 18.2254 17.5293 17.3537 17.5007C16.482 17.472 15.6387 17.1835 14.9322 16.6721C14.2256 16.1607 13.6881 15.4498 13.3885 14.6307C13.0889 13.8115 13.041 12.9216 13.251 12.075L7.71878 8.0675C6.20545 9.56101 4.84939 11.2059 3.6719 12.9763ZM17.4991 3.28125C16.3703 3.28125 15.2744 3.47812 14.22 3.83031C14.0141 3.90439 13.7955 3.93652 13.577 3.92482C13.3585 3.91313 13.1445 3.85784 12.9477 3.76221C12.7509 3.66658 12.5752 3.53255 12.4309 3.36799C12.2867 3.20344 12.1768 3.01169 12.1078 2.80404C12.0388 2.59639 12.012 2.37703 12.029 2.15887C12.046 1.94071 12.1065 1.72817 12.2069 1.53374C12.3074 1.33931 12.4456 1.16694 12.6137 1.02676C12.7817 0.88658 12.9761 0.781431 13.1853 0.7175C14.575 0.246828 16.0318 0.00451942 17.4991 0C21.8325 0 25.5272 2.17 28.29 4.54563C31.0681 6.93219 33.0741 9.67531 34.0585 11.1584C34.4469 11.7407 34.6542 12.425 34.6542 13.125C34.6542 13.825 34.4469 14.5093 34.0585 15.0916C33.8178 15.4547 33.516 15.89 33.1616 16.3756C33.0342 16.5494 32.8738 16.6964 32.6896 16.8082C32.5054 16.92 32.3009 16.9945 32.088 17.0273C31.875 17.0601 31.6576 17.0506 31.4483 16.9994C31.239 16.9482 31.0418 16.8563 30.868 16.7289C30.6942 16.6015 30.5472 16.4411 30.4354 16.2569C30.3236 16.0727 30.2491 15.8683 30.2163 15.6553C30.1835 15.4423 30.193 15.2249 30.2442 15.0156C30.2954 14.8063 30.3873 14.6091 30.5147 14.4353C30.8385 13.9956 31.1097 13.5997 31.3263 13.2759C31.3572 13.2321 31.3737 13.1797 31.3737 13.1261C31.3737 13.0724 31.3572 13.0201 31.3263 12.9763C30.425 11.6178 28.6094 9.14813 26.1507 7.03281C23.6788 4.90438 20.7213 3.28125 17.4991 3.28125Z"
        fill="black" />
</svg>