<svg width="52" height="52" viewBox="0 0 52 52" fill="none" xmlns="http://www.w3.org/2000/svg">
<g clip-path="url(#clip0_178_950)">
<path d="M35.75 0C26.637 0 19.5 4.2835 19.5 9.75V15.3552C18.4535 15.2317 17.3658 15.1667 16.25 15.1667C7.137 15.1667 0 19.4502 0 24.9167V42.25C0 47.7165 7.137 52 16.25 52C23.6318 52 29.718 49.1898 31.7633 45.2162C33.059 45.4047 34.3937 45.5 35.75 45.5C44.863 45.5 52 41.2165 52 35.75V9.75C52 4.2835 44.863 0 35.75 0ZM47.6667 27.0833C47.6667 29.64 42.5707 32.5 35.75 32.5C34.6407 32.5 33.553 32.4242 32.5 32.2768V27.9782C33.5617 28.1017 34.6493 28.1667 35.75 28.1667C40.5037 28.1667 44.72 27.001 47.6667 25.1095V27.0833ZM4.33333 31.6095C7.28 33.501 11.4963 34.6667 16.25 34.6667C21.0037 34.6667 25.22 33.501 28.1667 31.6095V33.5833C28.1667 36.14 23.0707 39 16.25 39C9.42933 39 4.33333 36.14 4.33333 33.5833V31.6095ZM47.6667 18.4167C47.6667 20.9733 42.5707 23.8333 35.75 23.8333C34.5908 23.8333 33.4533 23.751 32.357 23.5907C31.9388 21.6688 30.6237 19.942 28.6607 18.5575C30.7927 19.1642 33.1933 19.5 35.75 19.5C40.5037 19.5 44.72 18.3343 47.6667 16.4428V18.4167ZM35.75 4.33333C42.5707 4.33333 47.6667 7.19333 47.6667 9.75C47.6667 12.3067 42.5707 15.1667 35.75 15.1667C28.9293 15.1667 23.8333 12.3067 23.8333 9.75C23.8333 7.19333 28.9293 4.33333 35.75 4.33333ZM16.25 19.5C23.0707 19.5 28.1667 22.36 28.1667 24.9167C28.1667 27.4733 23.0707 30.3333 16.25 30.3333C9.42933 30.3333 4.33333 27.4733 4.33333 24.9167C4.33333 22.36 9.42933 19.5 16.25 19.5ZM16.25 47.6667C9.42933 47.6667 4.33333 44.8067 4.33333 42.25V40.2762C7.28 42.1677 11.4963 43.3333 16.25 43.3333C21.0037 43.3333 25.22 42.1677 28.1667 40.2762V42.25C28.1667 44.8067 23.0707 47.6667 16.25 47.6667ZM35.75 41.1667C34.6407 41.1667 33.553 41.0908 32.5 40.9435V36.6448C33.5617 36.7683 34.6493 36.8333 35.75 36.8333C40.5037 36.8333 44.72 35.6677 47.6667 33.7762V35.75C47.6667 38.3067 42.5707 41.1667 35.75 41.1667Z" fill="#FFD700"/>
</g>
<defs>
<clipPath id="clip0_178_950">
<rect width="52" height="52" fill="white"/>
</clipPath>
</defs>
</svg>
