<svg width="20" height="20" viewBox="0 0 20 20" fill="none" xmlns="http://www.w3.org/2000/svg">
<g clip-path="url(#clip0_35_121)">
<path d="M19.3925 7.84907C18.1 5.74407 15.16 2.2124 10 2.2124C4.84004 2.2124 1.90004 5.74407 0.607543 7.84907C0.207983 8.49532 -0.00366211 9.2401 -0.00366211 9.9999C-0.00366211 10.7597 0.207983 11.5045 0.607543 12.1507C1.90004 14.2557 4.84004 17.7874 10 17.7874C15.16 17.7874 18.1 14.2557 19.3925 12.1507C19.7921 11.5045 20.0037 10.7597 20.0037 9.9999C20.0037 9.2401 19.7921 8.49532 19.3925 7.84907ZM17.9717 11.2782C16.8617 13.0832 14.3492 16.1207 10 16.1207C5.65088 16.1207 3.13838 13.0832 2.02838 11.2782C1.79099 10.8941 1.66525 10.4515 1.66525 9.9999C1.66525 9.54834 1.79099 9.1057 2.02838 8.72157C3.13838 6.91657 5.65088 3.87907 10 3.87907C14.3492 3.87907 16.8617 6.91324 17.9717 8.72157C18.2091 9.1057 18.3348 9.54834 18.3348 9.9999C18.3348 10.4515 18.2091 10.8941 17.9717 11.2782Z" fill="#303030"/>
<path d="M9.99992 5.83325C9.17583 5.83325 8.37025 6.07762 7.68504 6.53546C6.99984 6.9933 6.46579 7.64405 6.15042 8.4054C5.83506 9.16676 5.75254 10.0045 5.91332 10.8128C6.07409 11.621 6.47092 12.3635 7.05364 12.9462C7.63636 13.5289 8.37879 13.9258 9.18704 14.0865C9.9953 14.2473 10.8331 14.1648 11.5944 13.8494C12.3558 13.5341 13.0065 13 13.4644 12.3148C13.9222 11.6296 14.1666 10.824 14.1666 9.99992C14.1653 8.89526 13.7259 7.83622 12.9447 7.0551C12.1636 6.27399 11.1046 5.83458 9.99992 5.83325ZM9.99992 12.4999C9.50547 12.4999 9.02212 12.3533 8.61099 12.0786C8.19987 11.8039 7.87944 11.4134 7.69022 10.9566C7.501 10.4998 7.45149 9.99715 7.54796 9.51219C7.64442 9.02724 7.88252 8.58178 8.23215 8.23215C8.58178 7.88252 9.02724 7.64442 9.51219 7.54796C9.99715 7.45149 10.4998 7.501 10.9566 7.69022C11.4134 7.87944 11.8039 8.19987 12.0786 8.61099C12.3533 9.02212 12.4999 9.50547 12.4999 9.99992C12.4999 10.663 12.2365 11.2988 11.7677 11.7677C11.2988 12.2365 10.663 12.4999 9.99992 12.4999Z" fill="#303030"/>
</g>
<defs>
<clipPath id="clip0_35_121">
<rect width="20" height="20" fill="white"/>
</clipPath>
</defs>
</svg>
