<svg width="25" height="25" viewBox="0 0 25 25" fill="none" xmlns="http://www.w3.org/2000/svg">
<path d="M25 18.7504C25 19.4871 24.7074 20.1937 24.1864 20.7146C23.6655 21.2356 22.959 21.5282 22.2222 21.5282H16.6667V3.47266H22.2222C22.959 3.47266 23.6655 3.76531 24.1864 4.28625C24.7074 4.80718 25 5.51372 25 6.25043V18.7504Z" fill="#ED2939"/>
<path d="M2.77778 3.47266C2.04107 3.47266 1.33453 3.76531 0.813592 4.28625C0.292658 4.80718 0 5.51372 0 6.25043L0 18.7504C0 19.4871 0.292658 20.1937 0.813592 20.7146C1.33453 21.2356 2.04107 21.5282 2.77778 21.5282H8.33333V3.47266H2.77778Z" fill="#002495"/>
<path d="M8.33331 3.47266H16.6666V21.5282H8.33331V3.47266Z" fill="#EEEEEE"/>
</svg>
