<svg width="23" height="23" viewBox="0 0 52 49" fill="none" xmlns="http://www.w3.org/2000/svg">
<path d="M18.5625 2.343C13.5065 3.98672 9.14616 7.10653 6.12204 11.2442C3.09792 15.3819 1.56937 20.3193 1.76091 25.3313C1.95245 30.3432 3.85399 35.1655 7.18623 39.0899C10.5185 43.0142 15.1057 45.8337 20.2743 47.1343C24.4645 48.1475 28.8547 48.192 33.0673 47.2639C36.8835 46.4606 40.4118 44.7423 43.3065 42.2772C46.3193 39.6333 48.5061 36.2698 49.6318 32.5484C50.8551 28.5014 51.0728 24.2457 50.2683 20.1076H26.738V29.2548H40.3652C40.0928 30.7137 39.5092 32.1061 38.6492 33.3487C37.7893 34.5914 36.6706 35.6586 35.3603 36.4866C33.6964 37.5185 31.8205 38.2126 29.8532 38.5243C27.8803 38.8681 25.8566 38.8681 23.8837 38.5243C21.8839 38.1372 19.9922 37.3638 18.3292 36.2532C15.6573 34.4808 13.6511 31.9627 12.5969 29.0584C11.5251 26.0997 11.5251 22.8922 12.5969 19.9335C13.3473 17.8596 14.5879 15.9713 16.226 14.4096C18.1007 12.5896 20.474 11.2886 23.0857 10.6495C25.6974 10.0103 28.4465 10.0577 31.0313 10.7863C33.0507 11.3669 34.8973 12.3819 36.4237 13.7501C37.9602 12.3176 39.4941 10.8814 41.0254 9.44143C41.8161 8.66713 42.6779 7.92987 43.4567 7.13704C41.1263 5.10501 38.3911 3.52375 35.4077 2.48379C29.9746 0.635045 24.0299 0.585362 18.5625 2.343Z" fill="white"/>
<path d="M18.5626 2.34285C24.0295 0.584015 29.9743 0.63239 35.4078 2.47993C38.3917 3.52695 41.1257 5.11583 43.4528 7.15541C42.6622 7.94824 41.828 8.68921 41.0215 9.45981C39.4876 10.8948 37.9551 12.3249 36.4238 13.75C34.8974 12.3817 33.0508 11.3668 31.0314 10.7861C28.4474 10.055 25.6984 10.0049 23.0861 10.6414C20.4737 11.278 18.0989 12.5765 16.2222 14.3946C14.584 15.9563 13.3434 17.8446 12.593 19.9185L4.39771 13.9723C7.33112 8.52086 12.4102 4.35095 18.5626 2.34285Z" fill="#E33629"/>
<path d="M2.22336 19.8631C2.66352 17.8172 3.39484 15.8359 4.3977 13.9724L12.593 19.9335C11.5212 22.8922 11.5212 26.0997 12.593 29.0584C9.86255 31.0343 7.13078 33.0201 4.3977 35.0158C1.88792 30.3341 1.12248 24.9998 2.22336 19.8631Z" fill="#F8BD00"/>
<path d="M26.7381 20.1038H50.2684C51.0729 24.2418 50.8552 28.4976 49.6319 32.5445C48.5062 36.266 46.3193 39.6294 43.3066 42.2734C40.6618 40.3395 38.0051 38.4204 35.3603 36.4865C36.6716 35.6576 37.7907 34.5892 38.6508 33.3453C39.5108 32.1013 40.0939 30.7075 40.3653 29.2473H26.7381C26.7341 26.2019 26.7381 23.1528 26.7381 20.1038Z" fill="#587DBD"/>
<path d="M4.3938 35.0157C7.12688 33.0398 9.85864 31.054 12.5891 29.0583C13.6455 31.9637 15.6545 34.4818 18.3294 36.2531C19.9975 37.3585 21.8933 38.1257 23.8957 38.5056C25.8686 38.8495 27.8923 38.8495 29.8652 38.5056C31.8325 38.194 33.7084 37.4999 35.3722 36.468C38.017 38.4019 40.6737 40.321 43.3185 42.2549C40.4242 44.7213 36.8959 46.4409 33.0793 47.2453C28.8666 48.1734 24.4765 48.1289 20.2863 47.1156C16.9722 46.2864 13.8766 44.8246 11.1936 42.8218C8.35398 40.7086 6.03458 38.046 4.3938 35.0157Z" fill="#319F43"/>
</svg>
