<svg width="49" height="49" viewBox="0 0 49 49" fill="none" xmlns="http://www.w3.org/2000/svg">
<g clip-path="url(#clip0_143_99)">
<path d="M38.4146 25.4044L28.4652 19.8393L25.9023 24.4213C24.0855 27.6696 20.493 29.1298 17.8944 27.6764C15.2958 26.2229 14.6597 22.3975 16.4766 19.1492L22.0416 9.1998L16.0086 10.0147C14.219 10.249 12.4901 11.5271 11.465 13.3598L9.30033 17.23L1.94946 18.0811C0.545243 18.241 -0.698668 19.6506 -0.816304 21.2283L-1.92278 35.4977C-2.04697 37.0717 -1.00199 38.2148 0.402223 38.0549L9.9026 36.9559L18.844 41.957C21.1546 43.2494 24.3467 41.952 25.9622 39.0637L27.0095 39.6495C28.168 40.2975 29.7585 39.651 30.5685 38.2028L33.4975 32.9663L34.0211 33.2591C34.8917 33.7461 36.0818 33.2624 36.6905 32.1741L38.8872 28.2467C39.4958 27.1585 39.2851 25.8913 38.4146 25.4044ZM49.7941 27.7518L50.9006 13.4825C51.0248 11.9085 49.9798 10.7654 48.5756 10.9253L39.0752 12.0243L32.3855 8.28258C31.6001 7.84323 30.6786 7.69306 29.7226 7.83509L26.5734 8.31865C25.6926 8.44906 24.8547 9.08679 24.3513 9.98682L18.5712 20.3208C17.5598 22.129 17.9123 24.249 19.3589 25.0581C20.8055 25.8672 22.7963 25.058 23.8077 23.2497L27.835 16.0495L39.879 22.7861C41.9017 23.9174 42.3959 26.8901 40.9818 29.4183L39.6775 31.7502L47.0284 30.899C48.4372 30.731 49.6699 29.3259 49.7941 27.7518Z" fill="#FFD700"/>
</g>
<defs>
<clipPath id="clip0_143_99">
<rect width="48" height="48" fill="white" transform="translate(0.98877) rotate(1.1803)"/>
</clipPath>
</defs>
</svg>
