<svg width="28" height="28" viewBox="0 0 28 28" fill="none" xmlns="http://www.w3.org/2000/svg">
<g clip-path="url(#clip0_329_649)">
<path d="M20.4165 2.23645C19.1027 2.25688 17.8177 2.62361 16.691 3.2996C15.5644 3.97559 14.636 4.9369 13.9998 6.08645C13.3635 4.9369 12.4352 3.97559 11.3086 3.2996C10.1819 2.62361 8.89685 2.25688 7.58312 2.23645C5.48889 2.32744 3.51578 3.24358 2.09487 4.78472C0.673958 6.32586 -0.0792537 8.36673 -0.000211421 10.4615C-0.000211421 15.7663 5.58346 21.56 10.2665 25.4881C11.312 26.3668 12.634 26.8485 13.9998 26.8485C15.3655 26.8485 16.6875 26.3668 17.7331 25.4881C22.4161 21.56 27.9998 15.7663 27.9998 10.4615C28.0788 8.36673 27.3256 6.32586 25.9047 4.78472C24.4838 3.24358 22.5107 2.32744 20.4165 2.23645ZM16.234 23.7031C15.6086 24.2297 14.8173 24.5185 13.9998 24.5185C13.1822 24.5185 12.391 24.2297 11.7656 23.7031C5.77129 18.6736 2.33312 13.8483 2.33312 10.4615C2.25337 8.98529 2.76055 7.53747 3.74405 6.43377C4.72754 5.33007 6.10756 4.66003 7.58312 4.56978C9.05868 4.66003 10.4387 5.33007 11.4222 6.43377C12.4057 7.53747 12.9129 8.98529 12.8331 10.4615C12.8331 10.7709 12.956 11.0676 13.1748 11.2864C13.3936 11.5052 13.6904 11.6281 13.9998 11.6281C14.3092 11.6281 14.606 11.5052 14.8247 11.2864C15.0435 11.0676 15.1665 10.7709 15.1665 10.4615C15.0867 8.98529 15.5939 7.53747 16.5774 6.43377C17.5609 5.33007 18.9409 4.66003 20.4165 4.56978C21.892 4.66003 23.272 5.33007 24.2555 6.43377C25.239 7.53747 25.7462 8.98529 25.6665 10.4615C25.6665 13.8483 22.2283 18.6736 16.234 23.6985V23.7031Z" />
</g>
<defs>
<clipPath id="clip0_329_649">
<rect width="28" height="28"/>
</clipPath>
</defs>
</svg>
