<svg width="52" height="52" viewBox="0 0 52 52" fill="none" xmlns="http://www.w3.org/2000/svg">
<g clip-path="url(#clip0_178_983)">
<path d="M51.8787 27.4495L45.3115 8.68617C44.4015 6.08183 41.9337 4.33117 39.1755 4.33117H28.1667V2.16667C28.1667 0.970667 27.1982 0 26 0C24.8018 0 23.8333 0.970667 23.8333 2.16667V4.33333H12.8245C10.0663 4.33333 7.5985 6.084 6.6885 8.68617L0.121333 27.4495C0.0411667 27.6792 0 28.8188 0 28.8188C0 34.2485 4.05383 38.714 9.23 38.9848C11.9188 39.1343 14.5037 38.181 16.4623 36.322C18.395 34.489 19.5 31.9107 19.5 29.25C19.5 29.25 19.4545 27.664 19.3678 27.4257L12.5537 8.684C12.6425 8.67317 12.7335 8.66667 12.8245 8.66667H23.8333V47.6667H10.8333C9.63517 47.6667 8.66667 48.6373 8.66667 49.8333C8.66667 51.0293 9.63517 52 10.8333 52H41.1667C42.3648 52 43.3333 51.0293 43.3333 49.8333C43.3333 48.6373 42.3648 47.6667 41.1667 47.6667H28.1667V8.66667H39.1755C39.2665 8.66667 39.3575 8.671 39.4463 8.684L32.63 27.4257C32.5433 27.6618 32.4978 29.25 32.4978 29.25C32.4978 31.9128 33.605 34.489 35.5355 36.322C37.3663 38.0597 39.4962 38.9848 42.77 38.9848C47.9505 38.9848 51.9978 34.2485 51.9978 28.8188C51.9978 28.8188 51.9588 27.6792 51.8787 27.4495ZM9.45533 34.6602C7.11317 34.5367 5.15233 32.7058 4.54567 30.3333H15.0583C14.8417 31.4145 14.3 32.4003 13.4788 33.1782C12.3912 34.2117 10.9568 34.736 9.4575 34.658L9.45533 34.6602ZM14.2393 26H5.2195L9.64383 13.3618L14.2393 26ZM42.3562 13.3618L46.7805 26H37.7607L42.3562 13.3618ZM42.5468 34.6602C41.0562 34.7382 39.6132 34.2138 38.5233 33.1803C37.7022 32.4003 37.1605 31.4145 36.9438 30.3355H47.4565C46.8498 32.7058 44.8912 34.5388 42.549 34.6623L42.5468 34.6602Z" fill="#FFD700"/>
</g>
<defs>
<clipPath id="clip0_178_983">
<rect width="52" height="52" fill="white"/>
</clipPath>
</defs>
</svg>
