<svg width="52" height="52" viewBox="0 0 52 52" fill="none" xmlns="http://www.w3.org/2000/svg">
<g clip-path="url(#clip0_178_988)">
<path d="M25.9999 13C24.2858 13 22.6102 13.5083 21.185 14.4606C19.7598 15.4129 18.6489 16.7664 17.993 18.3501C17.337 19.9337 17.1654 21.6763 17.4998 23.3574C17.8342 25.0386 18.6596 26.5829 19.8717 27.7949C21.0837 29.007 22.628 29.8324 24.3091 30.1668C25.9903 30.5012 27.7329 30.3296 29.3165 29.6736C30.9001 29.0177 32.2537 27.9068 33.206 26.4816C34.1583 25.0564 34.6666 23.3808 34.6666 21.6667C34.6666 19.3681 33.7535 17.1637 32.1282 15.5384C30.5029 13.9131 28.2985 13 25.9999 13ZM25.9999 26C25.1429 26 24.3051 25.7459 23.5925 25.2697C22.8798 24.7935 22.3244 24.1168 21.9964 23.325C21.6685 22.5331 21.5827 21.6619 21.7499 20.8213C21.9171 19.9807 22.3298 19.2086 22.9358 18.6025C23.5418 17.9965 24.3139 17.5838 25.1545 17.4166C25.9951 17.2494 26.8664 17.3352 27.6582 17.6632C28.45 17.9912 29.1268 18.5466 29.603 19.2592C30.0791 19.9718 30.3333 20.8096 30.3333 21.6667C30.3333 22.8159 29.8767 23.9181 29.0641 24.7308C28.2514 25.5435 27.1492 26 25.9999 26Z" fill="#FFD700"/>
<path d="M25.9999 51.9999C24.1755 52.0093 22.3754 51.5814 20.7503 50.752C19.1252 49.9227 17.7224 48.7161 16.6594 47.2333C8.40228 35.8431 4.21411 27.2804 4.21411 21.7814C4.21411 16.0035 6.5094 10.4622 10.595 6.37653C14.6807 2.29089 20.222 -0.00439453 25.9999 -0.00439453C31.7779 -0.00439453 37.3192 2.29089 41.4049 6.37653C45.4905 10.4622 47.7858 16.0035 47.7858 21.7814C47.7858 27.2804 43.5976 35.8431 35.3404 47.2333C34.2775 48.7161 32.8747 49.9227 31.2496 50.752C29.6245 51.5814 27.8244 52.0093 25.9999 51.9999ZM25.9999 4.72544C21.4768 4.7306 17.1405 6.52968 13.9422 9.72799C10.7439 12.9263 8.94477 17.2627 8.93961 21.7858C8.93961 26.1408 13.0411 34.1943 20.4858 44.4621C21.1178 45.3326 21.9469 46.0411 22.9053 46.5297C23.8637 47.0182 24.9242 47.2729 25.9999 47.2729C27.0757 47.2729 28.1362 47.0182 29.0946 46.5297C30.053 46.0411 30.8821 45.3326 31.5141 44.4621C38.9588 34.1943 43.0603 26.1408 43.0603 21.7858C43.0551 17.2627 41.256 12.9263 38.0577 9.72799C34.8594 6.52968 30.523 4.7306 25.9999 4.72544Z" fill="#FFD700"/>
</g>
<defs>
<clipPath id="clip0_178_988">
<rect width="52" height="52" fill="white"/>
</clipPath>
</defs>
</svg>
