<svg width="36" height="36" viewBox="0 0 36 36" fill="none" xmlns="http://www.w3.org/2000/svg">
<rect width="36" height="36" rx="10" />
<g clip-path="url(#clip0_260_1241)">
<path d="M18 18C18.6593 18 19.3038 17.8045 19.8519 17.4382C20.4001 17.072 20.8274 16.5514 21.0796 15.9423C21.3319 15.3332 21.3979 14.663 21.2693 14.0164C21.1407 13.3698 20.8232 12.7758 20.3571 12.3096C19.8909 11.8435 19.297 11.526 18.6503 11.3974C18.0037 11.2688 17.3335 11.3348 16.7244 11.5871C16.1153 11.8394 15.5948 12.2666 15.2285 12.8148C14.8622 13.3629 14.6667 14.0074 14.6667 14.6667C14.6667 15.5507 15.0179 16.3986 15.643 17.0237C16.2681 17.6488 17.116 18 18 18ZM18 13C18.3297 13 18.6519 13.0977 18.926 13.2809C19.2001 13.464 19.4137 13.7243 19.5398 14.0289C19.666 14.3334 19.699 14.6685 19.6347 14.9918C19.5704 15.3151 19.4116 15.6121 19.1786 15.8452C18.9455 16.0783 18.6485 16.237 18.3252 16.3013C18.0019 16.3656 17.6668 16.3326 17.3622 16.2065C17.0577 16.0803 16.7974 15.8667 16.6143 15.5926C16.4311 15.3185 16.3334 14.9963 16.3334 14.6667C16.3334 14.2246 16.509 13.8007 16.8215 13.4882C17.1341 13.1756 17.558 13 18 13ZM25.2167 15.6308L24.6175 15.4317C24.7254 14.4983 24.6347 13.5526 24.3514 12.6567C24.0681 11.7609 23.5986 10.935 22.9738 10.2332C22.3489 9.53152 21.5828 8.9698 20.7257 8.58493C19.8685 8.20006 18.9397 8.00072 18 8C17.0482 8.00037 16.1074 8.20475 15.2412 8.59936C14.375 8.99398 13.6034 9.56967 12.9785 10.2876C12.3535 11.0056 11.8897 11.8492 11.6183 12.7616C11.3469 13.6739 11.2742 14.6338 11.405 15.5767C10.6076 15.7254 9.87015 16.1016 9.28171 16.66C8.87436 17.0473 8.55052 17.5138 8.33011 18.0309C8.1097 18.5479 7.99738 19.1046 8.00005 19.6667V23.0625C8.0018 23.9636 8.29487 24.84 8.83554 25.5609C9.3762 26.2818 10.1355 26.8085 11 27.0625L13.3917 27.8125C13.7934 27.9375 14.2118 28.0007 14.6325 28C15.0142 27.9995 15.394 27.9474 15.7617 27.845L20.5784 26.42C21.0075 26.3029 21.4601 26.3029 21.8892 26.42L23.8784 27.0867C24.3686 27.206 24.8796 27.2125 25.3727 27.1056C25.8658 26.9988 26.3282 26.7813 26.7251 26.4698C27.122 26.1582 27.4429 25.7606 27.6638 25.3069C27.8846 24.8533 27.9996 24.3554 28 23.8508V19.56C27.9982 18.6978 27.7297 17.8574 27.2314 17.1538C26.7331 16.4502 26.0294 15.9188 25.2167 15.6308ZM14.465 11.135C14.9286 10.6696 15.4795 10.3003 16.0861 10.0483C16.6927 9.79628 17.3432 9.66657 18 9.66657C18.6569 9.66657 19.3073 9.79628 19.914 10.0483C20.5206 10.3003 21.0715 10.6696 21.535 11.135C22.4702 12.076 22.9958 13.3482 22.9975 14.6748C22.9992 16.0014 22.4769 17.275 21.5442 18.2183L18.5834 21.0975C18.4288 21.249 18.2211 21.3339 18.0046 21.3339C17.7882 21.3339 17.5804 21.249 17.4259 21.0975L14.465 18.2308C13.5279 17.2878 13.002 16.0124 13.002 14.6829C13.002 13.3535 13.5279 12.078 14.465 11.135ZM26.3334 23.8508C26.3339 24.1032 26.2768 24.3524 26.1665 24.5794C26.0562 24.8064 25.8955 25.0053 25.6967 25.1608C25.5089 25.3118 25.2901 25.4196 25.0559 25.4765C24.8217 25.5334 24.5779 25.538 24.3417 25.49L22.3875 24.8333C21.6484 24.621 20.865 24.6164 20.1234 24.82L15.3034 26.2433C14.8403 26.3711 14.3502 26.3627 13.8917 26.2192L11.48 25.4692C10.9581 25.3182 10.4992 25.002 10.1722 24.5681C9.84525 24.1341 9.66787 23.6058 9.66671 23.0625V19.6667C9.66484 19.3298 9.73189 18.9961 9.86373 18.6862C9.99558 18.3762 10.1894 18.0965 10.4334 17.8642C10.8153 17.5002 11.3017 17.2653 11.8242 17.1925C12.1601 18.0251 12.6604 18.7816 13.295 19.4167L16.2675 22.2942C16.7321 22.7491 17.3565 23.0039 18.0067 23.0039C18.6569 23.0039 19.2813 22.7491 19.7459 22.2942L22.715 19.4083C23.3798 18.7409 23.8949 17.9395 24.2259 17.0575L24.6734 17.2058C25.1587 17.3797 25.5785 17.6991 25.8756 18.1204C26.1727 18.5418 26.3326 19.0445 26.3334 19.56V23.8508Z" fill="#6C6C6C"/>
</g>
<defs>
<clipPath id="clip0_260_1241">
<rect width="20" height="20" fill="white" transform="translate(8 8)"/>
</clipPath>
</defs>
</svg>
