<svg width="48" height="48" viewBox="0 0 48 48" fill="none" xmlns="http://www.w3.org/2000/svg">
<path d="M11.06 4.26007L0 15.5001H11.06V4.26007ZM11.856 4.26007V15.5001H27.072V22.8001L38.012 13.9001C37.984 11.4601 38.074 9.40007 37.962 6.98007C37.666 4.80007 35.388 4.04007 33.49 4.26007H11.856ZM46.2 8.64007C44.596 9.23007 43.484 10.6301 42.106 11.6201C37.094 15.7201 32.142 19.8601 27.17 24.0001C33.22 29.1801 39.25 34.3601 45.3 39.5201C47.736 40.8621 48.156 37.8921 47.956 36.2401V10.2401C47.9556 10.0146 47.9091 9.79161 47.8195 9.58474C47.7298 9.37786 47.5989 9.19147 47.4347 9.03699C47.2704 8.88251 47.0764 8.76318 46.8644 8.68634C46.6525 8.60949 46.4271 8.57673 46.202 8.59007L46.2 8.64007ZM0.076 16.3001V31.7001H11.136V16.3001H0.076ZM27.23 32.5001H12.016V43.7401C19.744 43.7281 27.49 43.7621 35.176 43.7221C37.216 43.5821 38.412 41.4821 38.112 39.5821V34.5621L27.172 25.2021V32.5021L27.23 32.5001ZM0.076 32.5001C0.116 35.3801 -0.006 38.2601 0.142 41.1201C0.466 43.0161 2.458 43.9801 4.236 43.7401H11.164V32.5001H0.076Z" fill="#FFD700"/>
</svg>
