<svg width="40" height="40" viewBox="0 0 40 40" fill="none" xmlns="http://www.w3.org/2000/svg">
<g clip-path="url(#clip0_329_665)">
<path d="M21.6665 1.66664C21.6665 1.22462 21.8421 0.800692 22.1546 0.488131C22.4672 0.175571 22.8911 -2.39338e-05 23.3331 -2.39338e-05C27.7519 0.00482873 31.9883 1.76233 35.1129 4.88689C38.2375 8.01145 39.995 12.2479 39.9998 16.6666C39.9998 17.1087 39.8242 17.5326 39.5117 17.8452C39.1991 18.1577 38.7752 18.3333 38.3331 18.3333C37.8911 18.3333 37.4672 18.1577 37.1546 17.8452C36.8421 17.5326 36.6665 17.1087 36.6665 16.6666C36.6625 13.1316 35.2565 9.74256 32.7569 7.24294C30.2572 4.74331 26.8681 3.33728 23.3331 3.33331C22.8911 3.33331 22.4672 3.15771 22.1546 2.84515C21.8421 2.53259 21.6665 2.10867 21.6665 1.66664ZM23.3331 9.99998C25.1013 9.99998 26.7969 10.7024 28.0472 11.9526C29.2974 13.2028 29.9998 14.8985 29.9998 16.6666C29.9998 17.1087 30.1754 17.5326 30.488 17.8452C30.8005 18.1577 31.2245 18.3333 31.6665 18.3333C32.1085 18.3333 32.5324 18.1577 32.845 17.8452C33.1576 17.5326 33.3331 17.1087 33.3331 16.6666C33.3305 14.0153 32.2761 11.4733 30.4013 9.5985C28.5265 7.72371 25.9845 6.66929 23.3331 6.66664C22.8911 6.66664 22.4672 6.84224 22.1546 7.1548C21.8421 7.46736 21.6665 7.89128 21.6665 8.33331C21.6665 8.77534 21.8421 9.19926 22.1546 9.51182C22.4672 9.82438 22.8911 9.99998 23.3331 9.99998ZM38.4881 27.8983C39.454 28.8668 39.9964 30.1788 39.9964 31.5466C39.9964 32.9145 39.454 34.2265 38.4881 35.195L36.9715 36.9433C23.3215 50.0116 -9.89519 16.8033 2.97148 3.10998L4.88815 1.44331C5.85776 0.504438 7.15803 -0.0149421 8.50765 -0.00246586C9.85727 0.0100104 11.1477 0.55334 12.0998 1.50998C12.1515 1.56164 15.2398 5.57331 15.2398 5.57331C16.1562 6.53602 16.6663 7.81486 16.6641 9.14398C16.662 10.4731 16.1477 11.7503 15.2281 12.71L13.2981 15.1366C14.3662 17.7318 15.9366 20.0904 17.919 22.0768C19.9014 24.0632 22.2568 25.6383 24.8498 26.7116L27.2915 24.77C28.2513 23.8512 29.5283 23.3375 30.857 23.3356C32.1857 23.3337 33.4641 23.8439 34.4265 24.76C34.4265 24.76 38.4365 27.8466 38.4881 27.8983ZM36.1948 30.3216C36.1948 30.3216 32.2065 27.2533 32.1548 27.2016C31.8115 26.8612 31.3475 26.6702 30.864 26.6702C30.3805 26.6702 29.9165 26.8612 29.5731 27.2016C29.5281 27.2483 26.1665 29.9266 26.1665 29.9266C25.9399 30.107 25.6703 30.2252 25.3842 30.2696C25.0981 30.314 24.8054 30.2831 24.5348 30.18C21.1756 28.9293 18.1244 26.9712 15.5879 24.4384C13.0514 21.9057 11.0888 18.8574 9.83315 15.5C9.72181 15.2257 9.68551 14.9268 9.72799 14.6339C9.77046 14.341 9.89017 14.0646 10.0748 13.8333C10.0748 13.8333 12.7531 10.47 12.7981 10.4266C13.1386 10.0833 13.3296 9.61934 13.3296 9.13581C13.3296 8.65228 13.1386 8.18833 12.7981 7.84498C12.7465 7.79498 9.67815 3.80331 9.67815 3.80331C9.32965 3.49082 8.87482 3.32347 8.40689 3.33555C7.93897 3.34764 7.49338 3.53825 7.16148 3.86831L5.24481 5.53498C-4.15852 16.8416 24.6265 44.03 34.5348 34.6666L36.0531 32.9166C36.4089 32.5871 36.6227 32.1321 36.6491 31.6478C36.6755 31.1635 36.5126 30.688 36.1948 30.3216Z" />
</g>
<defs>
<clipPath id="clip0_329_665">
<rect width="40" height="40" />
</clipPath>
</defs>
</svg>
