<svg width="84" height="84" viewBox="0 0 84 84" fill="none" xmlns="http://www.w3.org/2000/svg">
<circle cx="42" cy="42" r="42" fill="url(#paint0_linear_109_627)"/>
<path d="M38.0302 41.0229C37.8552 41.0054 37.6452 41.0054 37.4527 41.0229C33.2877 40.8829 29.9802 37.4704 29.9802 33.2704C29.9802 28.9829 33.4452 25.5004 37.7502 25.5004C42.0377 25.5004 45.5202 28.9829 45.5202 33.2704C45.5027 37.4704 42.1952 40.8829 38.0302 41.0229Z" stroke="#00AC4F" stroke-width="2.625" stroke-linecap="round" stroke-linejoin="round"/>
<path d="M50.7172 28.9996C54.1122 28.9996 56.8422 31.7471 56.8422 35.1246C56.8422 38.4321 54.2172 41.1271 50.9447 41.2496C50.8047 41.2321 50.6472 41.2321 50.4897 41.2496" stroke="#00AC4F" stroke-width="2.625" stroke-linecap="round" stroke-linejoin="round"/>
<path d="M29.2805 47.4796C25.0455 50.3146 25.0455 54.9346 29.2805 57.7521C34.093 60.9721 41.9855 60.9721 46.798 57.7521C51.033 54.9171 51.033 50.2971 46.798 47.4796C42.003 44.2771 34.1105 44.2771 29.2805 47.4796Z" stroke="#00AC4F" stroke-width="2.625" stroke-linecap="round" stroke-linejoin="round"/>
<path d="M54.0947 57.0004C55.3547 56.7379 56.5447 56.2304 57.5247 55.4779C60.2547 53.4304 60.2547 50.0529 57.5247 48.0054C56.5622 47.2704 55.3897 46.7804 54.1472 46.5004" stroke="#00AC4F" stroke-width="2.625" stroke-linecap="round" stroke-linejoin="round"/>
<defs>
<linearGradient id="paint0_linear_109_627" x1="74.55" y1="2.14197e-06" x2="42" y2="84" gradientUnits="userSpaceOnUse">
<stop stop-color="#D3FFE7"/>
<stop offset="1" stop-color="#EFFFF6"/>
</linearGradient>
</defs>
</svg>
